<svg width="50" height="34" viewBox="0 0 50 34" fill="none" xmlns="http://www.w3.org/2000/svg">
<path d="M11.8828 14.8962C11.6094 13.6106 11.2734 11.3688 11.2734 11.3688H11.2344C11.2344 11.3688 10.8984 13.6106 10.625 14.8962L9.75781 18.8806H12.7344L11.8828 14.8962ZM48.125 0H26.25V34H48.125C49.1641 34 50 32.8631 50 31.45V2.55C50 1.13688 49.1641 0 48.125 0ZM46.25 12.75C46.25 13.4513 45.8281 14.025 45.3125 14.025H44.4219C43.8828 16.5325 42.7266 19.0613 41.0859 21.4519C41.7422 22.1319 42.4219 22.78 43.125 23.3644C43.5547 23.7256 43.6953 24.48 43.4453 25.0856L42.8281 26.5625C42.5625 27.1894 41.9766 27.3912 41.5234 27.0194C40.5391 26.1906 39.6094 25.3088 38.7578 24.3738C37.9062 25.2981 36.9844 26.1906 35.9922 27.0194C35.5391 27.3912 34.9531 27.1894 34.6875 26.5625L34.0703 25.0856C33.8203 24.4906 33.9609 23.7256 34.3984 23.3644C35.125 22.7588 35.8047 22.1213 36.4375 21.4519C35.8203 20.5594 35.2734 19.6456 34.7969 18.7213C34.4844 18.1156 34.625 17.2763 35.0859 16.9044L35.5938 16.49L36.1641 16.0331C36.5859 15.6931 37.1328 15.8525 37.4141 16.3944C37.8047 17.1381 38.2578 17.8819 38.7734 18.615C39.8281 17.1063 40.6328 15.5444 41.1172 14.025H32.1875C31.6719 14.025 31.25 13.4513 31.25 12.75V11.05C31.25 10.3488 31.6719 9.775 32.1875 9.775H37.1875V8.075C37.1875 7.37375 37.6094 6.8 38.125 6.8H39.375C39.8906 6.8 40.3125 7.37375 40.3125 8.075V9.775H45.3125C45.8281 9.775 46.25 10.3488 46.25 11.05V12.75ZM0 2.55V31.45C0 32.8631 0.835938 34 1.875 34H23.75V0H1.875C0.835938 0 0 1.13688 0 2.55ZM4.60156 25.5106L9.09375 7.54375C9.22656 7.02313 9.57812 6.68312 9.98438 6.68312H12.5234C12.9219 6.68312 13.2812 7.03375 13.4141 7.54375L17.9062 25.5106C18.1094 26.3394 17.6641 27.2 17.0156 27.2H15.2266C15.0244 27.1998 14.8277 27.1107 14.6658 26.9461C14.5038 26.7814 14.3854 26.5499 14.3281 26.2862L13.5938 22.8969H8.89062L8.17969 26.2756C8.0625 26.8175 7.69531 27.2 7.28125 27.2H5.49219C4.85156 27.2 4.39844 26.3394 4.60156 25.5106Z" fill="black"/>
</svg>
