<?xml version="1.0" standalone="no"?>
<!DOCTYPE svg PUBLIC "-//W3C//DTD SVG 20010904//EN"
 "http://www.w3.org/TR/2001/REC-SVG-20010904/DTD/svg10.dtd">
<svg version="1.0" xmlns="http://www.w3.org/2000/svg"
 width="450.000000pt" height="406.000000pt" viewBox="0 0 450.000000 406.000000"
 preserveAspectRatio="xMidYMid meet">
<metadata>
Created by potrace 1.16, written by Peter Selinger 2001-2019
</metadata>
<g transform="translate(0.000000,406.000000) scale(0.100000,-0.100000)"
fill="#000000" stroke="none">
<path d="M340 4037 c-162 -55 -275 -173 -324 -336 -14 -49 -16 -172 -16 -1153
l0 -1098 2250 0 2250 0 0 1099 c0 1068 -1 1101 -20 1163 -48 156 -172 280
-329 328 -62 20 -102 20 -1905 20 l-1841 -1 -65 -22z m2091 -402 c347 -73 623
-352 696 -703 24 -119 14 -321 -22 -432 -15 -47 -39 -107 -53 -135 -199 -396
-649 -590 -1064 -459 -147 47 -261 115 -369 223 -108 108 -175 220 -224 371
-34 104 -45 299 -25 414 61 344 321 623 665 712 110 28 285 32 396 9z"/>
<path d="M2345 2851 l-240 -240 -90 88 c-55 53 -102 90 -118 93 -73 14 -127
-29 -127 -100 0 -46 1 -47 143 -189 141 -141 143 -143 187 -143 l44 0 293 292
293 293 0 46 c0 65 -34 99 -98 99 l-46 0 -241 -239z"/>
<path d="M0 1252 c0 -10 7 -43 16 -73 59 -198 218 -333 424 -358 50 -7 324
-11 677 -11 l593 0 0 -305 0 -305 -334 0 -334 0 -31 -26 c-27 -22 -31 -32 -31
-74 0 -38 5 -53 26 -74 l27 -26 1217 0 1217 0 27 26 c38 39 37 105 -3 145
l-29 29 -336 0 -336 0 0 305 0 305 593 0 c339 0 629 4 677 10 205 25 365 161
424 359 9 30 16 63 16 73 0 17 -82 18 -2250 18 -2168 0 -2250 -1 -2250 -18z"/>
</g>
</svg>
