<?xml version="1.0" ?><!DOCTYPE svg  PUBLIC '-//W3C//DTD SVG 1.1//EN'  'http://www.w3.org/Graphics/SVG/1.1/DTD/svg11.dtd'><svg height="8.4666mm" style="shape-rendering:geometricPrecision; text-rendering:geometricPrecision; image-rendering:optimizeQuality; fill-rule:evenodd; clip-rule:evenodd" version="1.1" viewBox="0 0 846.66 846.66" width="8.4666mm" xml:space="preserve" xmlns="http://www.w3.org/2000/svg" xmlns:xlink="http://www.w3.org/1999/xlink"><defs><style type="text/css">
   <![CDATA[
    .fil0 {fill:black;fill-rule:nonzero}
   ]]>
  </style></defs><g id="Layer_x0020_1"><path class="fil0" d="M99.75 10.38l407.2 0c5.18,0 9.91,1.9 13.54,5.06l38.64 28.62 187.78 0c11.4,0 20.64,9.24 20.64,20.65l0 750.93c0,11.4 -9.24,20.65 -20.64,20.65l-587 0c-11.4,0 -20.65,-9.25 -20.65,-20.65l0 -60.63 -39.51 0c-11.4,0 -20.64,-9.25 -20.64,-20.65l0 -703.34c0,-11.4 9.24,-20.64 20.64,-20.64zm515.12 74.97l47.12 34.9c5.44,4.04 8.32,10.24 8.33,16.54l0.06 597.57c0,11.4 -9.25,20.65 -20.65,20.65l-469.18 0 0 39.99 545.71 0 0 -709.65 -111.39 0zm-114.63 -33.68l-379.84 0 0 662.05 508.69 0 0 -566.61c-42.95,-31.82 -85.9,-63.63 -128.85,-95.44zm-307.28 528.15c-27.16,0 -27.16,-41.29 0,-41.29l267.06 0c27.15,0 27.15,41.29 0,41.29l-267.06 0zm0 -83.29c-27.16,0 -27.16,-41.29 0,-41.29l267.06 0c27.15,0 27.15,41.29 0,41.29l-267.06 0zm0 -83.3c-27.16,0 -27.16,-41.29 0,-41.29l267.06 0c27.15,0 27.15,41.29 0,41.29l-267.06 0zm-7.93 -300.41l177.16 0c11.4,0 20.64,9.24 20.64,20.64l0 177.16c0,11.4 -9.24,20.65 -20.64,20.65l-177.16 0c-11.4,0 -20.65,-9.25 -20.65,-20.65l0 -177.16c0,-11.4 9.25,-20.64 20.65,-20.64zm156.51 41.29l-135.87 0 0 135.87 135.87 0 0 -135.87z"/></g></svg>