<svg width="35" height="38" viewBox="0 0 35 38" fill="none" xmlns="http://www.w3.org/2000/svg">
<path d="M34.2564 29.3655L26.252 20.6753C24.6729 18.961 22.3147 18.6271 20.4144 19.6438L13.1277 11.7328V7.1243L4.37817 0L0.00341773 4.74954L6.56555 14.2486H10.8104L18.0971 22.1596C17.1675 24.2226 17.4683 26.7829 19.0473 28.4972L27.0517 37.1874C28.0497 38.2709 29.6629 38.2709 30.6541 37.1874L34.2564 33.2764C35.2475 32.193 35.2475 30.4416 34.2564 29.3655ZM22.677 16.6976C24.6114 16.6976 26.4297 17.5139 27.7968 18.9981L29.1229 20.4378C30.2029 19.9258 31.2282 19.2134 32.1169 18.2486C34.6529 15.4954 35.5141 11.6215 34.7075 8.1039C34.5572 7.43599 33.7847 7.20594 33.3336 7.69573L28.2479 13.2171L23.6066 12.3785L22.8342 7.33952L27.9198 1.81818C28.371 1.32839 28.1522 0.489796 27.5302 0.319109C24.2902 -0.549165 20.722 0.3859 18.1928 3.13173C16.2447 5.24675 15.3287 8.03711 15.3766 10.82L20.9886 16.9128C21.5423 16.7718 22.1164 16.6976 22.677 16.6976ZM15.5748 22.7829L11.6991 18.5751L1.28167 29.8924C-0.427222 31.7477 -0.427222 34.7533 1.28167 36.6085C2.99056 38.4638 5.75896 38.4638 7.46785 36.6085L15.9166 27.436C15.3971 25.9592 15.2399 24.3488 15.5748 22.7829ZM4.37817 35.0278C3.47588 35.0278 2.73764 34.2263 2.73764 33.2468C2.73764 32.2597 3.46905 31.4657 4.37817 31.4657C5.2873 31.4657 6.01871 32.2597 6.01871 33.2468C6.01871 34.2263 5.2873 35.0278 4.37817 35.0278Z" fill="black"/>
</svg>
