<?xml version="1.0" ?><svg data-name="Layer 1" id="Layer_1" viewBox="0 0 512 512" xmlns="http://www.w3.org/2000/svg"><path d="M460.81,128.2c-10.29-.64-17.33-.84-22.5-.81V118a9.78,9.78,0,0,0-8.21-9.65C322.75,90.79,273.78,126.09,256,144.79c-17.81-18.7-66.8-54-174.09-36.49A9.78,9.78,0,0,0,73.69,118v9.44c-5.17,0-12.21.17-22.5.81a8.48,8.48,0,0,0-8,8.46v262a8.48,8.48,0,0,0,12.2,7.62c.84-.39,83.32-39.22,193.59-1a9.06,9.06,0,0,0,1.86,1.57,7.9,7.9,0,0,0,1.06.5,10,10,0,0,0,1.44.67,10.12,10.12,0,0,0,2.31.32c.11,0,.2.08.31.08a9.4,9.4,0,0,0,2.56-.35,9.28,9.28,0,0,0,1.84-.84c.18-.09.36-.14.53-.24a9.56,9.56,0,0,0,2.12-1.73c110.22-38.23,192.69.59,193.52,1a8.48,8.48,0,0,0,12.2-7.62v-262A8.48,8.48,0,0,0,460.81,128.2Zm-214.59,246C227.9,359.5,194,341.94,136.64,341.94a327.3,327.3,0,0,0-43.38,3V126.36c107.49-15.18,145.62,27,153,36.92ZM418.74,345c-84.38-11.27-130.43,11.15-153,29.21V163.29c7.45-10,45.68-52,153-36.93Z"/></svg>