<?xml version="1.0" ?><svg enable-background="new 0 0 52 52" id="Layer_1" version="1.1" viewBox="0 0 52 52" xml:space="preserve" xmlns="http://www.w3.org/2000/svg" xmlns:xlink="http://www.w3.org/1999/xlink"><g><path d="M18.2164841,16.0799866c-0.3300171,0.2600098-0.6500244,0.5400391-0.9500122,0.8400269   c-2.8200064,2.8099976-3.8699942,7-2.9899893,11.7999878c0.1599731,0.8499756,0.3900146,1.6900024,0.6599731,2.5299683   c1.210021-0.539978,5.4500113-2.5799561,9.4899893-6.1199951C21.6864548,22.2599792,19.8964767,19.6499939,18.2164841,16.0799866z"/><path d="M31.8164597,14.6600037c-2-0.6600342-4.0100098-1.0200195-5.9400024-1.0200195   c-2.2199707,0-4.2399902,0.460022-5.9599609,1.3500366c1.6199951,3.4799805,3.3299561,6,5.9799805,8.7699585   C28.3664474,21.309967,30.6064987,18.2799988,31.8164597,14.6600037z"/><path d="M49.676445,34.5500183c-0.8599854-4.6600342-3.4799805-9.3699951-7.3599854-13.25   c-2.5904541-2.5905151-5.5719604-4.609314-8.6317749-5.9251099c-3.6947632,10.9434204-15.553772,16.6928101-18.0534668,17.7592163   c1.3153677,3.1447144,3.3546743,6.1853027,6.0052481,8.8358765c4.7999878,4.7999878,10.9500122,7.6699829,16.4400024,7.6699829   c3.4899902,0,6.4700317-1.1400146,8.6199951-3.289978C49.5064621,43.5400085,50.5664597,39.3500061,49.676445,34.5500183z"/><path d="M19.6064987,14.309967l-1.1800537-2.6399536c-1.0899658-2.4500122-3.6299429-3.9299927-6.2899771-3.6900024   C8.4064875,8.3299866,4.9664845,5.9599915,3.9364555,2.3600159L2.0164726,2.9100037   c1.289978,4.5200195,5.6300049,7.4799805,10.2999878,7.0599976c1.8200073-0.1699829,3.5400391,0.8499756,4.2800283,2.5100098   l1.1799927,2.6400146c0.1499634,0.3299561,0.289978,0.6499634,0.4400024,0.9599609   c0.5299683-0.4099731,1.0999756-0.7799683,1.7000122-1.0899658C19.8164597,14.769989,19.7064743,14.5400085,19.6064987,14.309967z"/></g></svg>