<?xml version="1.0" standalone="no"?>
<!DOCTYPE svg PUBLIC "-//W3C//DTD SVG 20010904//EN"
 "http://www.w3.org/TR/2001/REC-SVG-20010904/DTD/svg10.dtd">
<svg version="1.0" xmlns="http://www.w3.org/2000/svg"
 width="512.000000pt" height="512.000000pt" viewBox="0 0 512.000000 512.000000"
 preserveAspectRatio="xMidYMid meet">
<metadata>
Created by potrace 1.16, written by Peter Selinger 2001-2019
</metadata>
<g transform="translate(0.000000,512.000000) scale(0.100000,-0.100000)"
fill="#000000" stroke="none">
<path d="M3954 5059 c-94 -12 -174 -70 -237 -171 -12 -20 -13 -28 -4 -36 18
-14 939 -583 953 -589 7 -2 27 25 48 68 32 64 36 80 36 148 0 87 -29 162 -83
219 -28 30 -439 293 -526 337 -44 22 -122 32 -187 24z"/>
<path d="M3107 3902 c-290 -467 -529 -856 -532 -863 -6 -16 -155 -1216 -155
-1247 0 -30 29 -55 59 -50 14 3 260 160 546 350 l520 345 528 852 c291 470
526 858 524 865 -5 11 -930 588 -952 594 -7 2 -249 -379 -538 -846z m-84
-1203 c188 -117 347 -217 354 -223 8 -8 -56 -55 -253 -184 l-263 -174 -133 82
c-73 45 -134 84 -136 85 -4 3 67 592 73 613 3 6 7 12 11 12 3 0 160 -95 347
-211z"/>
<path d="M852 3557 l-482 -482 0 -1508 0 -1507 1625 0 1625 0 0 1066 c0 638
-4 1063 -9 1060 -5 -4 -22 1 -38 10 -28 17 -30 16 -96 -27 l-67 -44 0 -932 0
-933 -1415 0 -1415 0 0 1355 0 1355 435 0 435 0 0 430 0 430 697 2 697 3 57
90 c32 50 58 96 58 103 1 9 -168 12 -812 12 l-812 0 -483 -483z"/>
</g>
</svg>
