<?xml version="1.0" standalone="no"?>
<!DOCTYPE svg PUBLIC "-//W3C//DTD SVG 20010904//EN"
 "http://www.w3.org/TR/2001/REC-SVG-20010904/DTD/svg10.dtd">
<svg version="1.0" xmlns="http://www.w3.org/2000/svg"
 width="215.000000pt" height="215.000000pt" viewBox="0 0 215.000000 215.000000"
 preserveAspectRatio="xMidYMid meet">
<metadata>
Created by potrace 1.16, written by Peter Selinger 2001-2019
</metadata>
<g transform="translate(0.000000,215.000000) scale(0.100000,-0.100000)"
fill="#000000" stroke="none">
<path d="M266 1404 c-241 -293 -266 -327 -254 -342 8 -9 129 -156 268 -325
149 -182 256 -305 261 -300 5 5 36 53 69 107 l59 97 -174 214 c-96 118 -175
218 -175 223 0 5 64 88 142 183 78 96 156 192 174 214 l32 40 -60 100 c-33 55
-63 103 -67 108 -4 4 -128 -140 -275 -319z"/>
<path d="M1552 1625 c-34 -57 -62 -106 -62 -109 0 -3 79 -103 176 -222 158
-194 174 -217 161 -232 -16 -20 -316 -391 -330 -410 -7 -9 9 -44 54 -117 34
-58 66 -104 70 -103 4 2 125 147 269 322 232 283 261 322 251 339 -16 25 -509
625 -519 631 -4 2 -36 -42 -70 -99z"/>
<path d="M1206 1628 c-13 -46 -95 -324 -181 -618 -86 -294 -158 -541 -160
-547 -3 -10 24 -13 118 -13 l122 0 183 623 c100 342 182 625 182 630 0 4 -54
7 -119 7 l-120 0 -25 -82z"/>
</g>
</svg>
