<?xml version="1.0" standalone="no"?>
<!DOCTYPE svg PUBLIC "-//W3C//DTD SVG 20010904//EN"
 "http://www.w3.org/TR/2001/REC-SVG-20010904/DTD/svg10.dtd">
<svg version="1.0" xmlns="http://www.w3.org/2000/svg"
 width="359.000000pt" height="363.000000pt" viewBox="0 0 359.000000 363.000000"
 preserveAspectRatio="xMidYMid meet">
<metadata>
Created by potrace 1.16, written by Peter Selinger 2001-2019
</metadata>
<g transform="translate(0.000000,363.000000) scale(0.100000,-0.100000)"
fill="#000000" stroke="none">
<path d="M1458 3623 c-10 -2 -20 -14 -22 -26 -17 -90 -22 -102 -55 -124 -19
-13 -43 -23 -54 -23 -26 0 -84 44 -92 71 -6 18 -13 21 -49 17 -51 -6 -196 -67
-203 -85 -3 -8 2 -22 12 -33 23 -25 14 -61 -28 -106 -26 -29 -40 -36 -70 -36
-33 0 -50 8 -103 47 -17 12 -48 -5 -129 -72 -67 -55 -75 -74 -50 -107 25 -33
19 -89 -12 -118 -47 -45 -79 -52 -125 -28 -21 11 -42 20 -47 20 -7 0 -83 -90
-132 -158 l-24 -34 20 -16 c106 -87 42 -220 -95 -197 l-40 7 -29 -64 c-16 -34
-34 -83 -41 -107 -12 -44 -11 -45 23 -75 64 -56 73 -105 31 -155 -16 -20 -44
-36 -77 -46 -28 -8 -54 -21 -59 -28 -4 -6 -8 -58 -8 -114 l0 -103 34 -14 c39
-16 66 -60 66 -104 0 -38 -39 -95 -70 -102 -24 -6 -25 -9 -28 -100 -4 -132 -2
-136 62 -154 62 -18 106 -62 106 -104 0 -36 -34 -90 -66 -104 -22 -10 -25 -16
-19 -45 6 -35 63 -183 75 -196 4 -5 26 -3 48 4 123 36 194 -113 90 -189 -10
-7 -18 -17 -18 -22 0 -12 139 -190 149 -190 5 0 28 9 52 19 32 15 48 17 68 9
68 -25 94 -87 66 -153 -8 -22 -13 -45 -11 -51 8 -20 155 -134 173 -134 8 0 28
11 45 25 21 18 41 25 72 25 54 0 80 -19 102 -75 16 -43 16 -46 -1 -65 -9 -10
-15 -25 -12 -33 7 -18 152 -79 205 -85 33 -4 42 -1 42 11 0 21 70 77 96 77 21
0 68 -31 91 -60 7 -8 13 -31 13 -50 1 -62 7 -65 131 -65 l112 0 21 40 c12 22
34 46 49 53 56 27 139 -10 152 -68 l7 -30 93 0 c125 0 141 7 149 64 6 35 16
52 47 80 21 20 49 36 61 36 28 0 84 -38 99 -67 17 -32 50 -29 147 14 l82 36 0
60 c0 56 2 62 39 98 47 47 74 49 129 9 23 -17 47 -30 53 -30 24 0 179 127 179
147 0 8 -7 21 -15 29 -20 21 -19 84 2 114 35 52 77 64 133 39 23 -11 46 -19
51 -19 16 0 129 152 129 174 0 11 -9 35 -19 52 -36 58 -31 106 14 151 36 36
57 39 121 18 18 -6 26 6 68 97 47 105 51 132 17 143 -30 9 -62 50 -67 86 -9
61 56 129 124 129 33 0 40 22 48 138 l7 112 -27 0 c-40 0 -96 60 -96 103 0 44
56 107 95 107 l28 0 -7 112 c-4 62 -12 118 -17 124 -5 6 -27 14 -49 18 -23 4
-54 19 -72 35 -28 25 -33 36 -33 74 0 48 28 90 67 103 26 8 22 37 -15 129 -45
111 -40 106 -101 99 -49 -6 -55 -4 -89 26 -33 28 -37 38 -37 79 0 29 7 57 20
76 11 17 20 40 20 51 0 22 -113 174 -129 174 -5 0 -27 -8 -50 -19 -23 -10 -53
-16 -66 -13 -30 5 -73 47 -81 79 -8 29 4 93 16 93 6 0 10 9 10 20 0 20 -95
103 -154 135 -32 18 -33 17 -76 -14 -57 -41 -84 -40 -131 8 -37 36 -39 42 -39
98 l0 60 -82 36 c-97 43 -130 46 -147 14 -15 -29 -71 -67 -99 -67 -12 0 -40
16 -61 36 -31 28 -41 45 -47 80 -8 57 -24 64 -149 64 l-93 0 -7 -30 c-13 -58
-96 -95 -152 -68 -15 7 -37 31 -49 53 l-20 40 -100 2 c-54 0 -107 -1 -116 -4z
m627 -288 c431 -89 822 -376 1035 -761 88 -158 152 -350 180 -533 14 -95 14
-337 0 -432 -76 -505 -388 -937 -843 -1166 -236 -118 -497 -169 -782 -151
-349 21 -681 170 -943 422 -215 208 -352 439 -425 722 -37 144 -48 229 -48
389 0 160 11 245 48 389 146 564 608 1003 1178 1121 166 35 433 34 600 0z"/>
<path d="M1550 3256 c-499 -88 -909 -421 -1090 -883 -22 -56 -52 -150 -67
-210 -26 -102 -28 -121 -28 -328 0 -207 2 -226 28 -328 143 -565 551 -964
1110 -1084 116 -25 448 -25 564 0 273 59 526 193 718 382 191 187 321 420 392
702 26 102 28 121 28 328 0 207 -2 226 -28 328 -142 561 -545 957 -1100 1083
-98 22 -424 28 -527 10z m-180 -397 c85 -13 119 -31 180 -91 93 -91 109 -155
110 -425 l0 -163 -135 0 -135 0 -1 168 c0 204 -7 231 -65 251 -48 17 -90 5
-114 -32 -38 -60 -39 -1474 -2 -1520 19 -23 67 -30 107 -17 59 20 65 43 65
264 0 217 -3 226 -66 226 l-34 0 0 115 0 115 185 0 185 0 -1 -267 c0 -370 -9
-477 -43 -547 -33 -67 -90 -118 -165 -148 -46 -18 -76 -22 -161 -22 -174 1
-256 45 -324 173 l-36 69 0 796 0 797 30 60 c58 113 126 171 232 194 79 17
107 18 188 4z m1120 -1007 c73 -554 136 -1024 138 -1045 l4 -37 -135 0 c-76 0
-138 4 -142 10 -3 5 -19 110 -35 232 -17 123 -32 233 -35 246 -5 21 -10 22
-95 22 -76 0 -89 -3 -93 -17 -3 -10 -18 -119 -33 -243 -15 -124 -32 -231 -37
-237 -14 -19 -277 -18 -277 0 0 7 9 75 20 152 24 174 250 1903 250 1916 0 5
72 9 168 9 l167 0 135 -1008z"/>
<path d="M2116 1759 c-52 -41 -71 -114 -43 -169 38 -75 154 -93 208 -32 53 59
50 133 -6 189 -28 28 -40 33 -83 33 -35 0 -57 -6 -76 -21z"/>
</g>
</svg>
