<?xml version="1.0" standalone="no"?>
<!DOCTYPE svg PUBLIC "-//W3C//DTD SVG 20010904//EN"
 "http://www.w3.org/TR/2001/REC-SVG-20010904/DTD/svg10.dtd">
<svg version="1.0" xmlns="http://www.w3.org/2000/svg"
 width="287.000000pt" height="290.000000pt" viewBox="0 0 287.000000 290.000000"
 preserveAspectRatio="xMidYMid meet">
<metadata>
Created by potrace 1.16, written by Peter Selinger 2001-2019
</metadata>
<g transform="translate(0.000000,290.000000) scale(0.100000,-0.100000)"
fill="#000000" stroke="none">
<path d="M1178 2893 c-23 -4 -28 -9 -28 -33 0 -16 -4 -40 -10 -54 -9 -25 -56
-56 -84 -56 -22 0 -87 60 -79 73 9 14 -51 1 -102 -22 -22 -11 -50 -22 -62 -26
-24 -7 -31 -29 -13 -40 29 -18 -5 -96 -49 -115 -36 -15 -74 -7 -102 21 -11 11
-24 19 -30 17 -5 -2 -38 -25 -74 -53 -62 -48 -77 -69 -54 -77 5 -2 13 -22 16
-45 5 -38 2 -46 -27 -73 -35 -33 -75 -39 -106 -15 -10 8 -22 15 -25 15 -10 0
-119 -135 -119 -148 0 -5 7 -12 14 -15 8 -3 22 -20 31 -37 35 -68 -25 -139
-107 -126 l-38 6 -26 -57 c-31 -70 -42 -123 -25 -123 7 0 23 -11 36 -25 54
-53 18 -141 -62 -152 -47 -6 -53 -20 -53 -128 0 -62 1 -64 29 -70 36 -8 65
-62 56 -104 -8 -36 -40 -71 -65 -71 -18 0 -20 -7 -20 -64 0 -109 6 -123 53
-129 80 -11 116 -99 62 -152 -13 -14 -29 -25 -35 -25 -18 0 -11 -38 21 -114
l31 -74 34 11 c77 24 145 -53 109 -123 -9 -17 -23 -34 -31 -37 -7 -3 -14 -10
-14 -15 0 -10 108 -148 115 -148 1 0 16 7 31 15 39 20 61 19 95 -5 36 -27 47
-77 25 -121 -15 -30 -15 -32 7 -49 12 -10 42 -34 67 -54 25 -20 48 -36 52 -36
5 0 17 9 28 20 43 43 118 33 145 -21 17 -33 19 -65 5 -74 -18 -11 -11 -33 12
-40 13 -4 41 -15 63 -26 51 -23 111 -36 102 -22 -8 13 57 73 80 73 26 0 80
-39 87 -63 3 -12 6 -34 6 -48 0 -23 5 -27 38 -33 20 -3 62 -6 93 -6 54 0 57 2
64 27 10 42 39 63 85 63 46 0 90 -34 90 -70 0 -18 6 -20 58 -20 31 0 74 3 95
6 35 6 37 9 37 44 0 31 7 44 35 69 20 17 43 31 53 31 26 0 79 -36 87 -59 7
-22 25 -26 53 -12 9 5 41 19 69 31 l53 23 -2 49 c0 41 4 54 28 79 36 37 80 39
118 4 15 -14 29 -25 32 -25 3 0 36 23 75 52 66 49 82 72 58 80 -6 2 -13 22
-16 44 -8 74 72 129 132 90 13 -9 28 -16 33 -16 5 0 24 21 42 48 19 26 40 53
47 60 18 19 16 39 -8 72 -28 38 -21 95 16 128 28 24 74 29 93 10 16 -16 24 -5
53 67 12 33 27 64 31 69 13 16 9 36 -9 43 -53 21 -76 79 -49 130 15 30 49 49
96 55 20 2 25 9 26 33 1 17 5 58 9 93 6 52 5 62 -9 62 -24 0 -66 22 -60 31 3
5 1 9 -4 9 -19 0 -32 49 -20 75 6 14 15 25 20 25 5 0 7 4 4 9 -6 9 36 31 60
31 14 0 15 10 9 63 -4 34 -8 76 -9 92 -1 24 -6 31 -26 33 -74 9 -117 56 -106
116 6 30 36 66 56 66 19 0 21 23 4 58 -10 20 -19 39 -19 42 -1 3 -7 22 -15 43
-14 37 -14 37 -60 31 -40 -5 -50 -3 -76 19 -24 21 -29 33 -29 70 0 29 6 52 18
64 20 23 22 47 4 65 -7 7 -28 34 -47 61 -18 26 -37 47 -42 47 -5 0 -20 -7 -33
-16 -60 -39 -140 16 -132 90 3 22 10 42 16 44 24 8 8 31 -58 80 -39 29 -72 52
-75 52 -3 0 -17 -11 -32 -25 -38 -35 -82 -33 -118 4 -24 25 -28 38 -28 79 l2
49 -53 23 c-28 12 -60 26 -69 31 -28 14 -46 10 -53 -12 -8 -23 -61 -59 -87
-59 -10 0 -33 14 -53 31 -28 25 -35 38 -35 69 0 35 -2 38 -37 44 -21 3 -64 6
-95 6 -52 0 -58 -2 -58 -20 0 -36 -44 -70 -90 -70 -46 0 -75 21 -85 63 -7 26
-9 27 -74 26 -36 -1 -78 -4 -93 -6z m-24 -615 c26 -8 60 -31 93 -64 72 -71 83
-114 83 -316 l0 -158 -110 0 -110 0 0 138 c0 150 -8 181 -51 196 -42 15 -78 0
-95 -39 -19 -47 -21 -1146 -1 -1185 18 -36 84 -40 115 -7 22 23 22 30 20 193
l-3 169 -37 3 -38 3 0 95 0 94 150 0 150 0 0 -290 c0 -268 -2 -293 -21 -344
-46 -124 -181 -184 -348 -156 -98 16 -151 52 -187 127 l-29 58 0 645 0 645 24
52 c25 56 84 117 129 134 77 30 179 32 266 7z m744 -75 c7 -49 46 -342 87
-653 109 -821 115 -872 122 -908 l5 -33 -118 3 -119 3 -26 200 c-15 110 -28
201 -28 203 -2 5 -141 2 -141 -3 0 -3 -11 -92 -25 -197 -14 -105 -25 -195 -25
-200 0 -4 -54 -8 -120 -8 l-119 0 4 28 c7 38 65 478 160 1207 9 66 22 170 30
230 8 61 18 134 21 163 l7 52 136 0 137 0 12 -87z"/>
<path d="M1694 1402 c-66 -53 -56 -146 20 -177 67 -28 136 20 136 97 0 79 -97
129 -156 80z"/>
</g>
</svg>
